<svg width="240" height="240" viewBox="0 0 240 240" fill="none" xmlns="http://www.w3.org/2000/svg">
  <defs>
    <linearGradient id="g" x1="32" y1="20" x2="208" y2="220" gradientUnits="userSpaceOnUse">
      <stop stop-color="#2F80ED"/>
      <stop offset="1" stop-color="#27AE60"/>
    </linearGradient>
    <filter id="shadow" x="-20%" y="-20%" width="140%" height="140%">
      <feDropShadow dx="0" dy="10" stdDeviation="10" flood-color="#000000" flood-opacity="0.18"/>
    </filter>
  </defs>
  <rect width="240" height="240" rx="48" fill="#F7FAFC"/>
  <path d="M120 24L195 54V110C195 160 164 202 120 216C76 202 45 160 45 110V54L120 24Z" fill="url(#g)" filter="url(#shadow)"/>
  <path d="M78 88C78 78 86 70 96 70H144C154 70 162 78 162 88V152C162 162 154 170 144 170H96C86 170 78 162 78 152V88Z" fill="white" fill-opacity="0.95"/>
  <path d="M96 96H144" stroke="#2F80ED" stroke-width="10" stroke-linecap="round"/>
  <path d="M96 120H132" stroke="#27AE60" stroke-width="10" stroke-linecap="round"/>
  <path d="M96 144H124" stroke="#2F80ED" stroke-width="10" stroke-linecap="round"/>
  <circle cx="158" cy="154" r="28" fill="#111827" fill-opacity="0.92"/>
  <path d="M150 142L171 154L150 166V142Z" fill="white"/>
  <text x="120" y="231" text-anchor="middle" font-family="Arial, Helvetica, sans-serif" font-size="18" font-weight="700" fill="#1F2937">CVR</text>
</svg>
